<?xml version="1.0" encoding="UTF-8" standalone="no"?>
<svg
   version="1.1"
   viewBox="0.00 0.00 1024.00 1024.00"
   id="svg22"
   sodipodi:docname="inkwell-logo2.svg"
   inkscape:version="1.3.2 (091e20e, 2023-11-25)"
   xmlns:inkscape="http://www.inkscape.org/namespaces/inkscape"
   xmlns:sodipodi="http://sodipodi.sourceforge.net/DTD/sodipodi-0.dtd"
   xmlns="http://www.w3.org/2000/svg"
   xmlns:svg="http://www.w3.org/2000/svg">
  <defs
     id="defs22">
    <inkscape:path-effect
       effect="fill_between_many"
       method="originald"
       linkedpaths="#path2,0,1|#path7,0,1|"
       id="path-effect1" />
    <inkscape:path-effect
       effect="fill_between_many"
       method="originald"
       linkedpaths="#path7,0,1|#path2,0,1|"
       id="path-effect9" />
  </defs>
  <sodipodi:namedview
     id="namedview22"
     pagecolor="#ffffff"
     bordercolor="#000000"
     borderopacity="0.25"
     inkscape:showpageshadow="2"
     inkscape:pageopacity="0.0"
     inkscape:pagecheckerboard="0"
     inkscape:deskcolor="#d1d1d1"
     inkscape:zoom="0.83775857"
     inkscape:cx="484.62649"
     inkscape:cy="836.15975"
     inkscape:window-width="1392"
     inkscape:window-height="1212"
     inkscape:window-x="170"
     inkscape:window-y="25"
     inkscape:window-maximized="0"
     inkscape:current-layer="svg22" />
  <path
     id="path1"
     style="fill:#5a400d;fill-opacity:1"
     d="M 813.31836 73.501953 C 808.98336 73.440287 805.21 73.559375 802 73.859375 C 790.72004 74.912704 783.09247 75.760391 779.11914 76.400391 C 761.27922 79.293712 744.47753 83.406924 728.71094 88.740234 C 703.00102 97.440202 677.5691 108.91926 653.69922 122.69922 C 642.10593 129.39252 634.31984 134.02938 630.33984 136.60938 C 615.98658 145.936 601.38256 156.76012 586.5293 169.08008 C 566.55938 185.65 549.29906 203.75922 533.36914 223.86914 C 507.52259 256.48902 487.99569 291.86373 474.78906 329.99023 C 470.2291 343.15019 466.76086 355.18942 464.38086 366.10938 C 456.89423 400.40922 453.04651 435.47734 452.83984 471.31055 A 0.65 0.65 0 0 1 452.23047 471.96094 L 423.75 474.10938 A 10.39 9.81 35.3 0 0 422.33008 474.31055 C 421.73008 474.51721 419.45953 474.80945 415.51953 475.18945 C 409.9529 475.72279 401.40748 477.20732 389.88086 479.64062 C 380.2009 481.69396 370.85934 485.0242 361.85938 489.63086 C 354.40605 493.45086 348.24749 498.22256 343.38086 503.94922 C 337.76753 510.55585 334.6369 518.57957 333.99023 528.01953 C 333.53023 534.83283 334.00969 541.19298 335.42969 547.09961 C 336.92969 553.32957 339.6293 557.29918 343.2793 562.86914 C 344.55263 564.80914 346.1236 566.68977 347.99023 568.50977 C 351.70023 572.11973 353.10035 573.68 356.07031 575.25 A 0.71 0.71 0 0 1 356.11914 576.48047 C 339.74588 586.6871 324.70969 598.58953 311.00977 612.18945 C 304.03644 619.12278 298.30078 625.71741 293.80078 631.9707 C 287.54748 640.684 282.96718 648.13055 280.06055 654.31055 C 275.91388 663.15717 272.72973 671.55337 270.50977 679.5 C 266.2431 694.80659 263.41596 711.14008 262.0293 728.5 C 261.7693 731.76666 261.58404 733.83761 261.4707 734.71094 C 261.1907 736.94427 261.03953 739.01636 261.01953 740.92969 C 260.91953 752.75631 260.92263 765.32424 261.0293 778.63086 C 261.0493 781.18419 261.25086 783.97027 261.63086 786.99023 C 262.06086 790.40023 261.66969 794.85082 262.42969 798.80078 C 262.61635 799.79411 262.76753 800.94333 262.88086 802.25 C 263.44086 808.78996 264.30404 815.03381 265.4707 820.98047 C 267.2307 829.99376 269.77295 838.39306 273.09961 846.17969 C 279.56957 861.33961 290.92004 873.27051 304.75 882.48047 C 311.34996 886.87377 317.73996 890.56722 323.91992 893.56055 C 330.35325 896.68718 336.43969 899.27055 342.17969 901.31055 C 358.91961 907.25051 376.27674 911.82576 394.25 915.03906 C 401.38996 916.31906 408.27066 917.3962 414.89062 918.26953 A 3.75 4.05 61.2 0 1 415.84961 918.50977 C 416.56294 918.77643 417.01255 918.90706 417.19922 918.90039 C 419.79255 918.83372 422.28326 919.1136 424.66992 919.74023 A 6.5 6.52 51.8 0 0 426.46094 919.94922 C 428.8476 919.87589 431.28907 920.12279 433.78906 920.68945 A 9.82 10.01 52.6 0 0 435.82031 920.93945 C 438.96698 921.00612 440.64294 921.05961 440.84961 921.09961 C 445.56957 922.11961 450.78086 921.6607 455.13086 922.2207 C 458.31086 922.62737 460.3624 922.83938 461.28906 922.85938 C 489.48228 923.45934 506.36616 923.64039 511.93945 923.40039 C 519.35278 923.07372 525.39082 922.94 530.05078 923 C 533.02411 923.03333 536.14662 922.81628 539.41992 922.34961 C 541.64659 922.03628 544.7691 921.89635 548.78906 921.92969 A 6.04 6.1 40.3 0 0 550.03906 921.82031 C 553.33906 921.19365 556.65074 920.89326 559.9707 920.91992 C 562.5007 920.93992 564.44035 920.08906 567.07031 920.03906 C 568.63031 920.0124 570.41016 919.85388 572.41016 919.56055 C 580.99678 918.27388 585.88675 917.55372 587.08008 917.40039 C 589.15341 917.13372 592.21 916.64302 596.25 915.92969 C 616.24992 912.42302 635.50938 907.19356 654.0293 900.24023 C 664.49592 896.3136 674.60605 891.35577 684.35938 885.36914 C 697.2293 877.47918 708.84988 866.97922 716.33984 854.0293 C 719.63317 848.3293 722.29365 842.25408 724.32031 835.80078 C 727.48031 825.72749 729.49581 814.71616 730.36914 802.76953 C 730.38914 802.48286 730.44263 801.78635 730.5293 800.67969 C 730.94263 795.42636 731.28411 784.54568 731.55078 768.03906 C 731.67078 760.7891 730.98906 752.8607 731.03906 745.9707 C 731.0724 742.01074 730.78635 737.21338 730.17969 731.58008 C 729.35302 723.92012 728.90031 719.12278 728.82031 717.18945 C 728.80031 716.62945 728.63984 715.9093 728.33984 715.0293 C 727.87984 713.6493 728.00953 711.77992 727.76953 710.16992 C 725.62953 695.27666 721.92679 680.89902 716.66016 667.03906 C 713.50016 658.7191 709.88698 651.17992 705.82031 644.41992 C 701.12035 636.61329 696.2509 629.81286 691.21094 624.01953 C 684.28428 616.04624 679.15051 610.59965 675.81055 607.67969 C 668.93722 601.65969 664.26745 597.66588 661.80078 595.69922 C 653.04749 588.73259 644.02376 582.55658 634.73047 577.16992 A 0.67 0.67 0 0 1 634.74023 576.00977 C 636.62023 574.96977 638.44427 573.69302 640.21094 572.17969 C 649.25757 564.42639 655.32969 555.024 658.42969 543.9707 C 659.39635 540.53074 659.95604 537.27255 660.10938 534.19922 C 660.28934 530.46589 660.23589 527.15 659.94922 524.25 C 658.22922 507.03008 644.92969 494.72965 629.50977 487.92969 C 620.00314 483.74303 610.24376 480.60926 600.23047 478.5293 C 593.23717 477.08263 587.35031 476.04969 582.57031 475.42969 C 578.85035 474.94969 573.56736 474.30667 566.7207 473.5 C 561.73074 472.91 557.0609 473.01039 551.96094 472.15039 A 1.74 0.98 34 0 0 551.71094 472.13086 L 546.23047 472.15039 A 0.43 0.43 0 0 1 545.94922 471.39062 C 552.19585 466.15066 557.53428 461.68047 561.96094 457.98047 C 564.09427 456.20047 568.66329 452.86403 575.66992 447.9707 C 581.38325 443.98407 586.08287 440.83906 589.76953 438.53906 C 602.08282 430.87243 613.14259 424.04718 622.94922 418.06055 C 633.81584 411.42722 642.58957 405.72252 649.26953 400.94922 C 657.98949 394.72256 666.34345 388.43338 674.33008 382.08008 C 683.91004 374.45345 693.10973 365.81965 701.92969 356.17969 C 703.12302 354.87302 705.13427 352.46757 707.96094 348.96094 C 712.09424 343.81428 715.53576 338.65377 718.28906 333.48047 C 720.64906 329.03047 722.14 324.5107 723.25 319.7207 C 724.66333 313.64741 723.19317 308.40043 718.83984 303.98047 C 717.91984 303.04714 717.12255 302.27969 716.44922 301.67969 A 0.45 0.45 0 0 1 716.55078 300.93945 C 722.83074 297.81282 726.92031 295.69031 728.82031 294.57031 C 749.75356 282.22369 767.17039 265.88713 781.07031 245.56055 C 788.03031 235.39392 794.03342 224.99264 799.08008 214.35938 C 807.15337 197.36609 814.11741 179.91019 819.9707 161.99023 C 824.42403 148.37031 829.24615 131.08721 834.43945 110.14062 C 837.77945 96.660692 839.62404 88.952857 839.9707 87.019531 C 840.9907 81.346222 838.78601 77.470617 833.35938 75.390625 A 4.31 4.28 57.7 0 0 832.14062 75.109375 C 830.77399 74.989375 829.69682 74.769215 828.91016 74.449219 A 2.93 3.04 59.8 0 0 828.00977 74.230469 C 822.54977 73.807136 817.65336 73.56362 813.31836 73.501953 z M 798.2793 95.015625 C 804.06553 94.816875 809.95961 95.040002 815.34961 96 A 0.62 0.62 0 0 1 815.84961 96.75 C 808.37963 130.18994 799.56904 162.88936 786.53906 194.5293 C 781.05908 207.84926 774.45403 220.41406 766.7207 232.2207 C 752.58074 253.81399 733.8574 269.76677 710.55078 280.08008 C 703.3108 283.29006 692.81062 286.66086 684.89062 290.88086 C 681.37064 292.75086 675.9093 296.08977 674.5293 300.00977 C 671.8993 307.48975 679.98072 310.68977 685.7207 312.25977 C 690.9807 313.70642 695.20086 314.89675 698.38086 315.83008 C 699.07419 316.03008 700.09279 316.56922 701.43945 317.44922 A 1.26 1.26 0 0 1 702.00977 318.60938 C 701.67977 322.58936 697.65969 328.34947 695.17969 331.68945 C 687.85303 341.58277 679.73982 350.46963 670.83984 358.34961 C 644.7099 381.47957 616.35033 398.4502 583.90039 417.91016 C 562.98043 430.45012 540.71082 446.7109 523.13086 465.13086 C 506.5709 482.48416 495.86308 502.82998 491.00977 526.16992 A 0.98 0.99 5.8 0 1 490.05078 526.96094 L 475.74023 526.96094 A 1.28 1.28 0 0 1 474.4707 525.80078 C 473.87737 519.60746 473.45255 514.90588 473.19922 511.69922 C 472.70589 505.47256 472.33651 492.98996 472.08984 474.25 C 472.06984 472.86333 472.22721 468.86642 472.56055 462.25977 C 472.58721 461.62643 472.75388 457.62641 473.06055 450.25977 C 474.70055 410.88983 481.47041 370.00906 494.65039 332.11914 C 508.37037 292.65922 531.01912 255.159 559.03906 223.28906 C 570.06904 210.7491 583.01002 197.80029 596.25 186.57031 C 636.97659 152.03039 682.61669 125.97369 733.16992 108.40039 C 748.79656 102.96707 765.02607 99.020541 781.85938 96.560547 C 786.81436 95.835549 792.49305 95.214375 798.2793 95.015625 z M 708.98047 281.83984 C 703.13049 284.10484 697.64438 286.01504 692.58789 288.20508 C 697.64437 286.01504 703.13048 284.10484 708.98047 281.83984 z M 685.33398 291.7793 C 683.02812 293.09368 680.83702 294.55751 678.76953 296.25 C 677.6762 297.14333 676.64325 298.52086 675.66992 300.38086 C 676.64325 298.52086 677.6762 297.14333 678.76953 296.25 C 680.83703 294.5575 683.02812 293.09369 685.33398 291.7793 z M 599.85938 409.43945 C 585.73275 417.86608 576.55671 423.52349 572.33008 426.41016 C 576.55673 423.52349 585.73273 417.8661 599.85938 409.43945 z M 534.77344 455.16406 C 530.99886 458.61115 527.33702 462.2158 523.76953 466.05078 C 527.33703 462.21579 530.99886 458.61115 534.77344 455.16406 z M 529.69922 491.39062 C 535.52586 491.86396 542.46003 492.31357 550.5 492.74023 C 552.48 492.84023 558.37305 493.42977 568.17969 494.50977 C 582.50963 496.07974 597.24081 498.90026 610.55078 502.74023 C 623.98075 506.62023 640.83969 514.37097 639.42969 531.46094 C 637.88969 549.99088 618.66955 562.32987 602.59961 567.58984 C 595.13297 570.03651 586.57632 572.13731 576.92969 573.89062 C 554.29975 578.01062 530.27921 580.39935 506.7793 580.10938 L 493.96094 580.05078 C 468.43432 579.99078 443.05669 578.0772 417.83008 574.31055 C 406.3501 572.59722 395.82331 570.24953 386.25 567.26953 C 372.15002 562.87955 359.73967 554.8899 354.92969 540.41992 C 353.61636 536.45994 353.16675 532.92387 353.58008 529.81055 C 356.46008 508.36059 382.4194 502.15914 400.10938 498.86914 C 416.84934 495.74914 434.20949 493.48984 452.18945 492.08984 A 0.62 0.61 87.9 0 1 452.84961 492.71094 L 452.84961 506.50977 A 0.44 0.44 0 0 1 452.41992 506.94922 C 440.42661 507.28922 427.61688 508.30358 413.99023 509.99023 C 408.72358 510.64357 404.33364 511.57263 400.82031 512.7793 C 396.98699 514.10596 394.60635 516.50405 393.67969 519.9707 C 391.68969 527.4607 397.70055 531.50953 403.81055 534.26953 C 413.97053 538.85953 425.5301 541.56016 435.58008 543.16016 C 453.99337 546.08014 472.46671 547.68714 491 547.98047 C 518.86994 548.41047 541.90981 548.26053 567.00977 544.56055 C 576.54975 543.15055 596.57969 538.61951 597.67969 526.26953 C 598.36969 518.43955 589.64906 515.6607 582.78906 513.7207 C 580.3424 513.03404 576.0265 512.23984 569.83984 511.33984 C 554.31321 509.08652 538.70617 507.69349 523.01953 507.16016 L 518.92969 506.82031 L 527.31055 492.63086 A 2.53 2.54 17.7 0 1 529.69922 491.39062 z M 379.7793 587.71094 C 380.9193 588.0776 382.60654 588.53031 384.83984 589.07031 C 393.2065 591.08364 404.97403 593.25341 420.14062 595.58008 C 431.50058 597.32008 443.44411 598.57628 455.9707 599.34961 C 475.99729 600.58294 495.06953 601.07674 513.18945 600.83008 C 540.75937 600.45008 565.60082 598.77945 590.9707 593.68945 C 597.90403 592.29612 604.29709 590.6407 610.15039 588.7207 A 2.3 2.3 0 0 1 611.83008 588.82031 C 628.53 596.60027 643.70918 606.53252 657.36914 618.61914 C 670.4791 630.2191 682.14977 642.53031 689.75977 656.74023 C 695.77973 667.98686 700.26427 679.32957 703.21094 690.76953 C 706.4709 703.43949 708.85945 718.77098 709.68945 733.21094 C 710.79612 752.50419 711.04612 771.93341 710.43945 791.5 C 710.11279 802.17329 708.75268 812.64663 706.35938 822.91992 C 702.81938 838.11988 695.7493 852.12938 682.85938 862.10938 C 675.53938 867.78267 667.7533 872.41334 659.5 876 C 653.20004 878.75 645.41973 881.68914 637.50977 884.11914 C 619.37648 889.69247 600.45659 893.62969 580.75 895.92969 C 568.15004 897.39635 556.88251 898.47969 546.94922 899.17969 C 536.61593 899.90635 525.31235 900.31682 513.03906 900.41016 C 480.69252 900.64349 447.76321 898.96247 414.25 895.36914 C 402.26338 894.08248 391.04314 892.33247 380.58984 890.11914 C 363.36992 886.48914 346.67949 881.84051 330.76953 874.06055 C 322.2629 869.90055 315.6764 865.98698 311.00977 862.32031 C 299.50981 853.28702 291.85239 841.42373 288.03906 826.73047 C 286.4124 820.46384 285.27247 814.93395 284.61914 810.14062 C 281.72914 788.92074 281.62914 766.47047 282.11914 745.06055 C 282.20581 741.28055 282.66667 734.25996 283.5 724 C 285 705.49341 289.30043 687.62391 296.40039 670.39062 C 306.52035 645.80074 324.05938 625.11074 345.0293 609.05078 C 355.24259 601.22415 365.93918 594.19736 377.11914 587.9707 A 3.38 3.41 39.7 0 1 379.7793 587.71094 z " />
  <path
     d="M 0,0"
     id="path9"
     inkscape:original-d="M 0,0"
     inkscape:path-effect="#path-effect1" />
  <path
     inkscape:original-d="M 0,0"
     inkscape:path-effect="#path-effect9"
     d="M 0,0"
     id="path12" />
  <path
     fill="#f5e6cc"
     d="   M 815.35 96.00   A 0.62 0.62 0.0 0 1 815.85 96.75   C 808.38 130.19 799.57 162.89 786.54 194.53   Q 778.32 214.51 766.72 232.22   Q 745.51 264.61 710.55 280.08   C 703.31 283.29 692.81 286.66 684.89 290.88   C 681.37 292.75 675.91 296.09 674.53 300.01   C 671.90 307.49 679.98 310.69 685.72 312.26   Q 693.61 314.43 698.38 315.83   Q 699.42 316.13 701.44 317.45   A 1.26 1.26 0.0 0 1 702.01 318.61   C 701.68 322.59 697.66 328.35 695.18 331.69   Q 684.19 346.53 670.84 358.35   C 644.71 381.48 616.35 398.45 583.90 417.91   C 562.98 430.45 540.71 446.71 523.13 465.13   Q 498.29 491.16 491.01 526.17   A 0.99 0.98 -84.2 0 1 490.05 526.96   L 475.74 526.96   A 1.28 1.28 0.0 0 1 474.47 525.80   Q 473.58 516.51 473.20 511.70   Q 472.46 502.36 472.09 474.25   Q 472.06 472.17 472.56 462.26   Q 472.60 461.31 473.06 450.26   C 474.70 410.89 481.47 370.01 494.65 332.12   C 508.37 292.66 531.02 255.16 559.04 223.29   C 570.07 210.75 583.01 197.80 596.25 186.57   Q 657.34 134.76 733.17 108.40   Q 756.61 100.25 781.86 96.56   C 791.77 95.11 804.57 94.08 815.35 96.00   Z   M 761.75 132.88   C 755.69 137.10 749.69 139.90 743.10 144.51   Q 719.66 160.89 718.91 161.42   C 697.97 176.30 675.63 195.59 655.50 214.00   Q 624.64 242.25 597.36 273.60   Q 558.33 318.45 530.63 369.59   C 518.46 392.06 508.21 413.23 499.35 436.07   Q 489.23 462.17 482.61 496.54   A 1.27 1.22 41.1 0 0 482.67 497.23   Q 482.75 497.46 483.03 497.55   A 1.41 1.29 18.4 0 1 483.95 499.20   Q 482.98 502.18 483.18 504.41   C 483.57 508.89 482.62 513.24 482.81 517.32   A 0.12 0.12 0.0 0 0 482.93 517.43   L 483.21 517.43   A 0.33 0.32 -85.9 0 0 483.53 517.15   Q 485.34 504.36 488.18 495.38   C 497.73 465.21 508.14 434.66 521.36 406.87   Q 540.43 366.80 568.82 323.81   Q 578.80 308.71 602.35 280.59   Q 604.63 277.87 605.64 276.90   C 608.73 273.95 611.26 270.41 613.95 267.69   Q 623.72 257.78 637.30 243.48   C 644.19 236.23 651.39 230.19 658.01 223.52   Q 664.14 217.33 673.70 208.70   Q 690.54 193.49 695.08 189.49   Q 705.78 180.08 715.30 172.47   Q 727.46 162.77 735.79 155.79   Q 737.81 154.09 740.25 152.28   C 744.22 149.35 747.88 145.59 751.03 143.01   Q 757.37 137.84 762.15 133.26   A 0.21 0.20 -41.7 0 0 762.17 132.99   L 762.13 132.94   A 0.28 0.28 0.0 0 0 761.75 132.88   Z"
     id="path4"
     style="fill:#fffff0;fill-opacity:1" />
  <path
     fill="#d4b98e"
     d="   M 761.75 132.88   A 0.28 0.28 0.0 0 1 762.13 132.94   L 762.17 132.99   A 0.21 0.20 -41.7 0 1 762.15 133.26   Q 757.37 137.84 751.03 143.01   C 747.88 145.59 744.22 149.35 740.25 152.28   Q 737.81 154.09 735.79 155.79   Q 727.46 162.77 715.30 172.47   Q 705.78 180.08 695.08 189.49   Q 690.54 193.49 673.70 208.70   Q 664.14 217.33 658.01 223.52   C 651.39 230.19 644.19 236.23 637.30 243.48   Q 623.72 257.78 613.95 267.69   C 611.26 270.41 608.73 273.95 605.64 276.90   Q 604.63 277.87 602.35 280.59   Q 578.80 308.71 568.82 323.81   Q 540.43 366.80 521.36 406.87   C 508.14 434.66 497.73 465.21 488.18 495.38   Q 485.34 504.36 483.53 517.15   A 0.33 0.32 -85.9 0 1 483.21 517.43   L 482.93 517.43   A 0.12 0.12 0.0 0 1 482.81 517.32   C 482.62 513.24 483.57 508.89 483.18 504.41   Q 482.98 502.18 483.95 499.20   A 1.41 1.29 18.4 0 0 483.03 497.55   Q 482.75 497.46 482.67 497.23   A 1.27 1.22 41.1 0 1 482.61 496.54   Q 489.23 462.17 499.35 436.07   C 508.21 413.23 518.46 392.06 530.63 369.59   Q 558.33 318.45 597.36 273.60   Q 624.64 242.25 655.50 214.00   C 675.63 195.59 697.97 176.30 718.91 161.42   Q 719.66 160.89 743.10 144.51   C 749.69 139.90 755.69 137.10 761.75 132.88   Z"
     id="path5"
     style="fill:#5a400d;fill-opacity:1" />
  <path
     id="path8"
     style="fill:#894e22;fill-opacity:0.80000001"
     d="M 529.69922 491.39062 A 2.53 2.54 17.7 0 0 527.31055 492.63086 L 518.92969 506.82031 L 523.01953 507.16016 C 538.70618 507.69349 554.31319 509.08651 569.83984 511.33984 C 576.0265 512.23984 580.3424 513.03404 582.78906 513.7207 C 589.64906 515.6607 598.36969 518.43954 597.67969 526.26953 C 596.57969 538.61952 576.54976 543.15055 567.00977 544.56055 C 541.90979 548.26054 518.86997 548.41047 491 547.98047 C 472.46669 547.68714 453.99339 546.08015 435.58008 543.16016 C 425.53009 541.56016 413.97054 538.85953 403.81055 534.26953 C 397.70055 531.50953 391.68969 527.4607 393.67969 519.9707 C 394.60635 516.50404 396.98698 514.10596 400.82031 512.7793 C 404.33364 511.57263 408.72357 510.64357 413.99023 509.99023 C 427.61689 508.30357 440.4266 507.28922 452.41992 506.94922 A 0.44 0.44 0 0 0 452.84961 506.50977 L 452.84961 492.71094 A 0.62 0.61 87.9 0 0 452.18945 492.08984 C 434.20947 493.48984 416.84936 495.74914 400.10938 498.86914 C 382.41939 502.15914 356.46008 508.36057 353.58008 529.81055 C 353.16675 532.92388 353.61636 536.45993 354.92969 540.41992 C 359.73968 554.88991 372.15001 562.87954 386.25 567.26953 C 395.82332 570.24953 406.35009 572.59722 417.83008 574.31055 C 443.05672 578.07721 468.4343 579.99078 493.96094 580.05078 L 506.7793 580.10938 C 530.27927 580.39937 554.29971 578.01062 576.92969 573.89062 C 586.57634 572.13729 595.13295 570.03651 602.59961 567.58984 C 618.66959 562.32985 637.88969 549.99092 639.42969 531.46094 C 640.83969 514.37095 623.98077 506.62023 610.55078 502.74023 C 597.24079 498.90024 582.50967 496.07976 568.17969 494.50977 C 558.37303 493.42977 552.48 492.84023 550.5 492.74023 C 542.46001 492.31357 535.52588 491.86396 529.69922 491.39062 z " />
  <path
     id="path11"
     style="fill:#894e22;fill-opacity:0.80000001"
     d="M 379.7793 587.71094 A 3.38 3.41 39.7 0 0 377.11914 587.9707 C 365.93916 594.19736 355.24261 601.22413 345.0293 609.05078 C 324.05934 625.11076 306.52037 645.80068 296.40039 670.39062 C 289.30041 687.62393 285 705.49337 283.5 724 C 282.66667 734.25998 282.20581 741.28055 282.11914 745.06055 C 281.62914 766.47051 281.72914 788.92068 284.61914 810.14062 C 285.27247 814.93395 286.4124 820.46382 288.03906 826.73047 C 291.85239 841.42377 299.50979 853.287 311.00977 862.32031 C 315.67642 865.98698 322.26288 869.90055 330.76953 874.06055 C 346.67951 881.84053 363.36988 886.48914 380.58984 890.11914 C 391.04316 892.33247 402.26336 894.08248 414.25 895.36914 C 447.76327 898.96247 480.69246 900.64349 513.03906 900.41016 C 525.31237 900.31682 536.61591 899.90635 546.94922 899.17969 C 556.88253 898.47969 568.15002 897.39635 580.75 895.92969 C 600.45663 893.62969 619.37646 889.69247 637.50977 884.11914 C 645.41975 881.68914 653.20002 878.75 659.5 876 C 667.75332 872.41334 675.53938 867.78269 682.85938 862.10938 C 695.74934 852.12938 702.81938 838.1199 706.35938 822.91992 C 708.7527 812.64661 710.11279 802.17331 710.43945 791.5 C 711.04612 771.93337 710.79612 752.50423 709.68945 733.21094 C 708.85945 718.77096 706.47092 703.43951 703.21094 690.76953 C 700.26427 679.32955 695.77975 667.98688 689.75977 656.74023 C 682.14977 642.53027 670.47912 630.21912 657.36914 618.61914 C 643.70916 606.5325 628.53004 596.60029 611.83008 588.82031 A 2.3 2.3 0 0 0 610.15039 588.7207 C 604.29707 590.6407 597.90403 592.29612 590.9707 593.68945 C 565.60076 598.77945 540.75941 600.45008 513.18945 600.83008 C 495.06949 601.07674 475.99733 600.58294 455.9707 599.34961 C 443.44407 598.57628 431.5006 597.32008 420.14062 595.58008 C 404.97399 593.25341 393.2065 591.08364 384.83984 589.07031 C 382.60652 588.53031 380.9193 588.0776 379.7793 587.71094 z M 368.68945 625.97656 C 372.22836 626.13391 375.81285 627.53844 379.32031 630.71094 C 382.01031 633.15094 384.0193 634.96 385.2793 638.5 C 387.62593 645.05996 386.92945 651.52709 383.18945 657.90039 C 380.63615 662.25372 378.16906 665.6293 375.78906 668.0293 C 369.7991 674.07926 362.55949 680.07938 354.26953 683.10938 C 345.49957 686.30934 336.62031 679.88004 334.32031 671.33008 C 331.58035 661.14012 334.34035 652.48934 341.32031 644.10938 C 347.86031 636.24938 358.07277 625.50453 368.68945 625.97656 z M 588.85938 701.75977 C 597.03934 701.68977 602.96961 706.63965 606.59961 713.84961 C 609.76961 720.14957 610.80938 726.44016 610.85938 733.41016 C 610.91934 740.37012 609.98012 746.6793 606.91016 753.0293 C 603.39016 760.29926 597.5391 765.34039 589.36914 765.40039 C 581.18918 765.47039 575.26086 760.52051 571.63086 753.31055 C 568.46086 747.01055 567.41934 740.71996 567.35938 733.75 C 567.30938 726.79004 568.25035 720.48082 571.32031 714.13086 C 574.84031 706.8609 580.67938 701.81977 588.85938 701.75977 z M 406.52148 702.45508 C 413.42806 702.51985 419.50977 707.31643 422.75977 713.83984 C 426.09974 720.51984 427.10945 726.95016 426.93945 734.41016 C 426.77945 741.87013 425.47935 748.24956 421.85938 754.76953 C 417.31938 762.9295 408.29044 768.04927 399.23047 764.0293 C 388.4705 759.2693 385.67016 744.01997 385.91016 733.5 C 386.14016 722.97003 389.61034 707.87005 400.57031 703.58008 C 402.58937 702.79039 404.58766 702.43694 406.52148 702.45508 z M 554.63672 793.92578 C 554.65651 793.92819 554.67556 793.92914 554.69531 793.93164 C 554.6758 793.92917 554.65626 793.92816 554.63672 793.92578 z M 441.98047 794.79883 C 444.24637 794.81847 446.65289 795.8057 449.00977 797.18945 C 461.50975 804.55945 470.75986 810.33094 483.83984 812.21094 C 499.65983 814.48427 514.74629 812.50906 529.09961 806.28906 C 534.7596 803.83906 539.57923 800.6107 545.94922 796.9707 C 554.27921 792.20071 565.03 796.32993 562.5 807.41992 C 560.18667 811.29325 557.27307 814.74597 553.75977 817.7793 C 547.08644 822.15263 541.37247 825.18248 536.61914 826.86914 C 519.34916 832.98913 501.49998 834.20015 483.25 832.41016 C 468.81001 830.99682 455.57744 826.17588 443.55078 817.94922 C 440.15078 815.62922 437.41008 813.2207 435.33008 810.7207 A 4.34 4.38 14.2 0 1 434.60938 809.5 C 432.63604 804.43334 433.44573 800.19263 437.03906 796.7793 C 438.53969 795.35305 440.2181 794.78355 441.98047 794.79883 z M 545.94922 795.71094 C 542.21589 798.09094 538.78429 800.12698 535.6543 801.82031 C 538.78412 800.12743 542.2159 798.09092 545.94922 795.71094 z M 561.17188 797.32617 C 561.17887 797.3336 561.18639 797.34021 561.19336 797.34766 C 561.18643 797.34026 561.17882 797.33355 561.17188 797.32617 z M 433.55469 799.54297 C 433.54484 799.56254 433.53512 799.58193 433.52539 799.60156 C 433.53518 799.58182 433.54478 799.56266 433.55469 799.54297 z M 455.80078 799.9707 C 457.39386 800.9967 459.01323 801.95872 460.65625 802.86133 C 459.01298 801.95852 457.39408 800.99684 455.80078 799.9707 z M 460.82227 802.95117 C 462.46731 803.84983 464.13505 804.68957 465.83008 805.46484 C 467.55337 806.25305 469.30315 806.97793 471.07812 807.63867 C 472.8531 808.29941 474.65381 808.89636 476.48047 809.42969 C 477.58047 809.75469 478.54512 809.92029 479.50977 810.07422 C 478.54477 809.92047 477.58047 809.75469 476.48047 809.42969 C 474.6538 808.89635 472.85312 808.2995 471.07812 807.63867 C 469.30313 806.97784 467.55341 806.25318 465.83008 805.46484 C 464.13524 804.68955 462.46713 803.84979 460.82227 802.95117 z M 531.18555 804.10156 C 529.77138 804.77656 528.43325 805.36581 527.16992 805.86914 C 520.25993 808.6158 513.28976 810.4193 506.25977 811.2793 C 504.50227 811.4943 502.74156 811.65096 500.97656 811.74805 C 497.44657 811.94221 493.90179 811.90055 490.3418 811.62305 C 488.5618 811.4843 486.77773 811.28596 484.99023 811.0293 C 486.77773 811.28596 488.56181 811.4843 490.3418 811.62305 C 493.90178 811.90053 497.4466 811.94223 500.97656 811.74805 C 502.74155 811.65095 504.50228 811.49431 506.25977 811.2793 C 513.28969 810.41926 520.25996 808.6158 527.16992 805.86914 C 528.43325 805.36581 529.77145 804.7764 531.18555 804.10156 z " />
  <path
     fill="#a6bdd0"
     d="   M 341.32 644.11   C 350.04 633.63 365.29 618.02 379.32 630.71   C 382.01 633.15 384.02 634.96 385.28 638.50   Q 388.80 648.34 383.19 657.90   Q 379.36 664.43 375.79 668.03   C 369.80 674.08 362.56 680.08 354.27 683.11   C 345.50 686.31 336.62 679.88 334.32 671.33   C 331.58 661.14 334.34 652.49 341.32 644.11   Z"
     id="path13"
     style="fill:#894e22;fill-opacity:0.60557771" />
  <path
     id="path16"
     style="fill:#5a400d;fill-opacity:0.99666661"
     d="M 588.85938 701.75977 C 580.67938 701.81977 574.84031 706.86087 571.32031 714.13086 C 568.25032 720.48085 567.30938 726.79001 567.35938 733.75 C 567.41937 740.71999 568.46086 747.01055 571.63086 753.31055 C 575.26086 760.52054 581.18915 765.47039 589.36914 765.40039 C 597.53913 765.34039 603.39016 760.29929 606.91016 753.0293 C 609.98015 746.6793 610.91937 740.37015 610.85938 733.41016 C 610.80938 726.44016 609.76961 720.1496 606.59961 713.84961 C 602.96961 706.63962 597.03937 701.68977 588.85938 701.75977 z " />
  <path
     id="path17"
     style="fill:#5a400d;fill-opacity:0.99666661"
     d="M 406.52148 702.45508 C 404.58764 702.43694 402.58937 702.79039 400.57031 703.58008 C 389.61032 707.87007 386.14016 722.97001 385.91016 733.5 C 385.67016 744.01999 388.47048 759.2693 399.23047 764.0293 C 408.29046 768.04929 417.31938 762.92952 421.85938 754.76953 C 425.47937 748.24954 426.77945 741.87015 426.93945 734.41016 C 427.10945 726.95016 426.09976 720.51984 422.75977 713.83984 C 419.50977 707.31641 413.42806 702.51985 406.52148 702.45508 z " />
  <path
     id="path21"
     style="fill:#5a400d;fill-opacity:1"
     d="M 441.98047 794.79883 C 440.2181 794.78355 438.53969 795.35305 437.03906 796.7793 C 433.44573 800.19263 432.63604 804.43334 434.60938 809.5 A 4.34 4.38 14.2 0 0 435.33008 810.7207 C 437.41008 813.2207 440.15078 815.62922 443.55078 817.94922 C 455.57744 826.17588 468.81001 830.99682 483.25 832.41016 C 501.49998 834.20015 519.34916 832.98913 536.61914 826.86914 C 541.37247 825.18248 547.08644 822.15263 553.75977 817.7793 C 557.2731 814.74597 560.18667 811.29325 562.5 807.41992 C 565.03 796.32993 554.27921 792.20071 545.94922 796.9707 C 539.57923 800.6107 534.7596 803.83906 529.09961 806.28906 C 514.74629 812.50906 499.65983 814.48427 483.83984 812.21094 C 470.75986 810.33094 461.50975 804.55945 449.00977 797.18945 C 446.65289 795.8057 444.24637 794.81847 441.98047 794.79883 z " />
</svg>
